<svg width="20" height="20" viewBox="0 0 20 20" fill="none" xmlns="http://www.w3.org/2000/svg">
<mask id="path-2-inside-1_94_571" fill="white">
<path d="M10 5.33332C9.00833 5.33332 8.25 6.09166 8.25 7.08332C8.25 8.07499 9.00833 8.83332 10 8.83332C10.9917 8.83332 11.75 8.07499 11.75 7.08332C11.75 6.09166 10.9917 5.33332 10 5.33332ZM10 9.99999C8.36667 9.99999 7.08333 8.71666 7.08333 7.08332C7.08333 5.44999 8.36667 4.16666 10 4.16666C11.6333 4.16666 12.9167 5.44999 12.9167 7.08332C12.9167 8.71666 11.6333 9.99999 10 9.99999ZM5.91667 14.0833H14.0833V13.5C14.0833 12.6833 12.3333 11.75 10 11.75C7.66667 11.75 5.91667 12.6833 5.91667 13.5V14.0833ZM15.25 15.25H4.75V13.5C4.75 11.8083 7.025 10.5833 10 10.5833C12.975 10.5833 15.25 11.8083 15.25 13.5V15.25Z"/>
</mask>
<path d="M10 5.33332C9.00833 5.33332 8.25 6.09166 8.25 7.08332C8.25 8.07499 9.00833 8.83332 10 8.83332C10.9917 8.83332 11.75 8.07499 11.75 7.08332C11.75 6.09166 10.9917 5.33332 10 5.33332ZM10 9.99999C8.36667 9.99999 7.08333 8.71666 7.08333 7.08332C7.08333 5.44999 8.36667 4.16666 10 4.16666C11.6333 4.16666 12.9167 5.44999 12.9167 7.08332C12.9167 8.71666 11.6333 9.99999 10 9.99999ZM5.91667 14.0833H14.0833V13.5C14.0833 12.6833 12.3333 11.75 10 11.75C7.66667 11.75 5.91667 12.6833 5.91667 13.5V14.0833ZM15.25 15.25H4.75V13.5C4.75 11.8083 7.025 10.5833 10 10.5833C12.975 10.5833 15.25 11.8083 15.25 13.5V15.25Z" fill="white"/>
<path d="M5.91667 14.0833H4.71667V15.2833H5.91667V14.0833ZM14.0833 14.0833V15.2833H15.2833V14.0833H14.0833ZM15.25 15.25V16.45H16.45V15.25H15.25ZM4.75 15.25H3.55V16.45H4.75V15.25ZM10 4.13332C8.34559 4.13332 7.05 5.42891 7.05 7.08332H9.45C9.45 6.7544 9.67107 6.53332 10 6.53332V4.13332ZM7.05 7.08332C7.05 8.73773 8.34559 10.0333 10 10.0333V7.63332C9.67107 7.63332 9.45 7.41225 9.45 7.08332H7.05ZM10 10.0333C11.6544 10.0333 12.95 8.73773 12.95 7.08332H10.55C10.55 7.41225 10.3289 7.63332 10 7.63332V10.0333ZM12.95 7.08332C12.95 5.42891 11.6544 4.13332 10 4.13332V6.53332C10.3289 6.53332 10.55 6.7544 10.55 7.08332H12.95ZM10 8.79999C9.02941 8.79999 8.28333 8.05391 8.28333 7.08332H5.88333C5.88333 9.3794 7.70392 11.2 10 11.2V8.79999ZM8.28333 7.08332C8.28333 6.11273 9.02941 5.36666 10 5.36666V2.96666C7.70392 2.96666 5.88333 4.78725 5.88333 7.08332H8.28333ZM10 5.36666C10.9706 5.36666 11.7167 6.11273 11.7167 7.08332H14.1167C14.1167 4.78725 12.2961 2.96666 10 2.96666V5.36666ZM11.7167 7.08332C11.7167 8.05391 10.9706 8.79999 10 8.79999V11.2C12.2961 11.2 14.1167 9.3794 14.1167 7.08332H11.7167ZM5.91667 15.2833H14.0833V12.8833H5.91667V15.2833ZM15.2833 14.0833V13.5H12.8833V14.0833H15.2833ZM15.2833 13.5C15.2833 12.858 14.9457 12.3602 14.6258 12.0373C14.2944 11.7029 13.8688 11.4359 13.4182 11.2286C12.5107 10.8111 11.3151 10.55 10 10.55V12.95C11.0183 12.95 11.8643 13.1555 12.4152 13.4089C12.6937 13.537 12.8515 13.6565 12.9211 13.7267C13.0022 13.8086 12.8833 13.7337 12.8833 13.5H15.2833ZM10 10.55C8.68494 10.55 7.48932 10.8111 6.58185 11.2286C6.13116 11.4359 5.70563 11.7029 5.3742 12.0373C5.0543 12.3602 4.71667 12.858 4.71667 13.5H7.11667C7.11667 13.7337 6.99778 13.8086 7.07892 13.7267C7.14854 13.6565 7.30634 13.537 7.58482 13.4089C8.13568 13.1555 8.98172 12.95 10 12.95V10.55ZM4.71667 13.5V14.0833H7.11667V13.5H4.71667ZM15.25 14.05H4.75V16.45H15.25V14.05ZM5.95 15.25V13.5H3.55V15.25H5.95ZM5.95 13.5C5.95 13.2629 6.10256 12.8633 6.83799 12.4586C7.55854 12.062 8.65956 11.7833 10 11.7833V9.38332C8.36544 9.38332 6.84146 9.71716 5.68076 10.356C4.53494 10.9866 3.55 12.0454 3.55 13.5H5.95ZM10 11.7833C11.3404 11.7833 12.4415 12.062 13.162 12.4586C13.8974 12.8633 14.05 13.2629 14.05 13.5H16.45C16.45 12.0454 15.4651 10.9866 14.3192 10.356C13.1585 9.71716 11.6346 9.38332 10 9.38332V11.7833ZM14.05 13.5V15.25H16.45V13.5H14.05Z" fill="white" mask="url(#path-2-inside-1_94_571)"/>
<rect x="0.75" y="0.75" width="18.5" height="18.5" rx="9.25" stroke="white" stroke-width="1.5"/>
</svg>
